<?xml version="1.0" encoding="utf-8"?>
<!-- Generator: Adobe Illustrator 24.0.2, SVG Export Plug-In . SVG Version: 6.00 Build 0)  -->
<svg version="1.1" id="圖層_1" xmlns="http://www.w3.org/2000/svg" xmlns:xlink="http://www.w3.org/1999/xlink" x="0px" y="0px"
	 viewBox="0 0 300 300" style="enable-background:new 0 0 300 300;" xml:space="preserve">
<style type="text/css">
	.st0{fill:#F9E6D3;}
	.st1{fill:#040000;}
	.st2{fill:#231815;}
	.st3{fill:#FFFFFF;}
	.st4{fill:#BD4546;}
</style>
<g>
	<path class="st0" d="M86.2,74.2L32.1,189.7l-15.6,37.1L6,253.8c-1.6,3.7,5.2,8.9,9.2,7.6l135.2-46.4L86.2,74.2z"/>
	<g>
		<path class="st1" d="M13.3,265.1c-3.6,0-7-1.7-9.1-4.6c-2.1-2.9-2.5-6.5-1.1-9.8l13.3-30.7c0.4-0.9,1.3-1.5,2.3-1.4
			c0.4,0,0.8,0.1,1.1,0.3c1.2,0.6,1.7,1.9,1.2,3L7.8,252.6c-0.8,1.8-0.6,3.8,0.6,5.4c1.1,1.6,3,2.5,5,2.5c0.7,0,1.4-0.1,2.1-0.3
			l131.8-42.9c1.2-0.4,2.2-1.3,2.8-2.4c0.5-1.2,0.5-2.5,0-3.6L90.7,81.4c-0.8-1.7-2.5-2.8-4.4-2.9c-2-0.1-3.7,1-4.5,2.7L31.1,198.5
			c-0.4,0.9-1.3,1.4-2.3,1.4c-0.4,0-0.7-0.1-1.1-0.3c-1.2-0.6-1.7-1.9-1.2-3l54-124.9c0.9-2.1,3.1-3.5,5.5-3.4c0,0,0,0,0,0
			c2.5,0.1,4.7,1.5,5.6,3.6l64.2,140.6c0.7,1.5,0.7,3.1,0,4.6c-0.7,1.4-1.9,2.6-3.5,3.1L17.2,264.5
			C15.9,264.9,14.6,265.1,13.3,265.1z"/>
		<path class="st2" d="M13.4,267.5C13.3,267.5,13.3,267.5,13.4,267.5L13.4,267.5c-4.4,0-8.5-2.1-11-5.5c-2.5-3.5-3-8-1.3-12.1
			l13.3-30.7c0.8-1.8,2.5-2.9,4.5-2.8c0.7,0,1.4,0.2,2.1,0.5c2.3,1.1,3.3,3.7,2.4,6L9.9,253.5c-0.5,1.1-0.3,2.2,0.3,3.1
			c0.7,1,1.8,1.5,3.1,1.5c0,0,0,0,0,0c0.5,0,0.9-0.1,1.4-0.2L146.5,215c0.6-0.2,1.1-0.6,1.4-1.2c0.2-0.5,0.2-1.2,0-1.7L88.6,82.4
			c-0.4-0.9-1.3-1.5-2.4-1.5c-1,0-1.9,0.5-2.3,1.3L33.3,199.5c-0.8,1.8-2.5,2.7-4.5,2.8c-0.7,0-1.4-0.2-2.1-0.5
			c-2.3-1.1-3.3-3.7-2.3-6l54-124.9c1.3-3,4.2-5,7.7-4.8c3.4,0.1,6.4,2,7.7,5L158,211.7c0.9,2.1,0.9,4.4,0,6.5
			c-0.9,2-2.7,3.6-4.9,4.3L17.9,266.7C16.4,267.2,14.9,267.5,13.4,267.5z M13.3,262.8c1.2,0.1,2.1-0.2,3.1-0.5l59.4-19.4l-59.6,19.4
			C15.3,262.6,14.4,262.7,13.3,262.8c-2.7,0-5.3-1.3-6.9-3.5c-1.6-2.3-1.9-5-0.8-7.6L18.9,221l-0.3,0.1L5.3,251.7
			c-1.1,2.5-0.8,5.3,0.8,7.5C7.7,261.4,10.4,262.8,13.3,262.8L13.3,262.8z M86.1,76.2c0.1,0,0.2,0,0.3,0c2.8,0.1,5.3,1.7,6.5,4.2
			l59.2,129.7c0.8,1.8,0.8,3.8,0,5.6c-0.7,1.5-1.9,2.7-3.3,3.4l2.9-1c0.9-0.3,1.7-1,2.1-1.8c0.4-0.8,0.4-1.8,0-2.6L89.6,73.1
			c-0.6-1.3-2-2.2-3.6-2.3c-1.5,0-2.8,0.8-3.3,2l-54,124.9l0.3,0L79.7,80.3C80.8,77.7,83.3,76.2,86.1,76.2z"/>
	</g>
	<polygon class="st3" points="94.8,93.1 24.9,258.5 44,268.6 107.8,121.5 	"/>
	<g>
		<path class="st1" d="M47.9,273.2c-0.9,0-1.9-0.2-2.7-0.6l-19.3-9c-2.9-1.4-4.2-4.5-3-7.4L90.6,93.8c0.9-2.1,3.1-3.5,5.5-3.5
			c0,0,0,0,0,0c2.5,0.1,4.7,1.5,5.6,3.6l11.6,25.4c0.6,1.4,0.7,3,0.1,4.4L53.6,269.5c-0.6,1.5-1.9,2.7-3.5,3.3
			C49.4,273.1,48.6,273.2,47.9,273.2z M27.1,258.9L48.5,269l60.6-147.5L96.2,93.1L27.1,258.9z"/>
		<path class="st2" d="M47.9,275.5c-1.3,0-2.6-0.3-3.7-0.8l-19.3-9c-4.1-1.9-5.9-6.4-4.2-10.4L88.4,92.9c1.2-2.9,4.1-4.8,7.3-4.9
			l0.3-0.7l0.3,0.7c3.3,0.2,6.2,2.1,7.5,5l11.6,25.4c0.9,2,1,4.3,0.1,6.3L55.7,270.4c-0.9,2.1-2.6,3.8-4.9,4.6
			C49.9,275.3,48.9,275.5,47.9,275.5z M26.3,261.1c0.2,0.1,0.4,0.2,0.6,0.3l19.3,9c0.2,0.1,0.3,0.1,0.5,0.2L26.3,261.1z
			 M111.5,121.8l-0.2,0.5L50.8,269.6c0.3-0.3,0.5-0.6,0.7-1l59.8-145.8C111.4,122.5,111.5,122.2,111.5,121.8z M30.1,257.7l17.2,8.1
			l59.3-144.3L96.3,99L30.1,257.7z M93.4,93.8c-0.3,0.3-0.5,0.6-0.6,1L25,257.1c-0.2,0.4-0.3,0.9-0.3,1.3l0.2-0.4L93.4,93.8z
			 M99.2,94.3l12.2,26.6c0-0.2-0.1-0.4-0.2-0.6L99.6,94.9C99.5,94.7,99.4,94.5,99.2,94.3z"/>
	</g>
	<polygon class="st3" points="44,268.6 49.7,270.3 157.9,230.9 107.8,121.5 	"/>
	<g>
		<path class="st1" d="M47.9,273.2c-1.6,0-3.2-0.6-4.3-1.7c-1.7-1.6-2.3-4.1-1.4-6.2l60.1-146c0.9-2.2,3-3.5,5.5-3.5c0,0,0,0,0,0
			c2.5,0.1,4.7,1.5,5.6,3.6l48.5,106c0.7,1.4,0.7,3.1,0.1,4.5c-0.6,1.4-1.8,2.6-3.3,3.1l-4.9,1.8l-1.9-4.2l6.3-2.3l-50.3-109.7
			l-62,150.9l82.6-30.3c0.3-0.1,0.6-0.2,0.9-0.2c0.9,0,1.8,0.5,2.2,1.4c0.3,0.6,0.3,1.2,0,1.8c-0.3,0.6-0.7,1-1.3,1.3l-80,29.4
			C49.4,273.1,48.6,273.2,47.9,273.2z"/>
		<path class="st2" d="M47.9,275.5L47.9,275.5c-2.2,0-4.3-0.8-5.9-2.3l-0.4,0.2l0.2-0.4c-2.3-2.3-3-5.7-1.8-8.6l60.1-146
			c1.2-2.9,4-4.8,7.3-5l0.3-0.7l0.3,0.7c3.3,0.2,6.2,2.1,7.5,4.9l48.5,106c0.9,2,1,4.3,0.1,6.4c-0.9,2-2.6,3.6-4.7,4.4l-6.9,2.5
			l-3.9-8.5l6.3-2.3l-47-102.5l-58,141l77.6-28.5c0.5-0.2,1-0.3,1.7-0.3c1.8,0,3.5,1.1,4.3,2.7c0.6,1.2,0.6,2.5,0.1,3.7
			c-0.5,1.2-1.5,2.1-2.7,2.5l-80,29.4C49.9,275.3,48.9,275.5,47.9,275.5z M129.3,241.2l-80.4,29.6c0.1,0,0.3-0.1,0.4-0.1
			L129.3,241.2z M104.9,119.2c-0.2,0.3-0.4,0.6-0.6,0.9l-60.1,146c-0.2,0.4-0.2,0.8-0.2,1.2L104.9,119.2z M110.8,119.7l49,107
			c0-0.1-0.1-0.3-0.2-0.4l-48.5-106C111.1,120.1,111,119.9,110.8,119.7z"/>
	</g>
	<path class="st0" d="M183.5,276.8l106.6-36.7c2.6-0.9,4.3-5.5,3.2-7.9L207.1,44c-1-2.1-5.3-5-7.5-4.3L83.1,72.4l93.6,200.9
		C177.7,275.5,181.2,277.6,183.5,276.8z"/>
	<polygon class="st4" points="211.1,268.4 200.5,271.9 106.7,66.4 117.6,63.2 	"/>
	<polygon class="st4" points="246.4,256.7 234.9,260.9 142.2,56.5 154,52.7 	"/>
	<polygon class="st4" points="278.4,244.6 267.6,249.2 176,45.8 187.1,41.5 	"/>
	<path class="st2" d="M296.4,237.1l3.6-1.2L234.3,92.7c-0.7-1.6-2.4-2.7-4.2-2.8c-0.5,0-1,0-1.5,0.2c-1.3,0.4-2.3,1.3-2.9,2.5
		c-0.5,1.2-0.5,2.6,0,3.8l63,137.3l-4,1.3l1.6,3.4l-101.9,35l-2.1-5.1l-4.7,1.8L88.9,77.4c-0.3-0.6-0.3-1.3,0-1.9
		c0.3-0.6,0.8-1,1.5-1.2l102.6-29l0,0l0.9-0.3l3.6-1l0,0l1.1-0.3l1.2,3.5l3.3-0.9l7.3,16.2c0.7,1.6,2.4,2.8,4.2,2.8h0
		c0.1,0,0.1,0,0.2,0c0.4,0,0.9-0.1,1.3-0.2c1.3-0.4,2.3-1.2,2.9-2.5c0.5-1.2,0.5-2.5,0-3.8L209.4,38l-0.9,0.3l8-18.5l-8.7-3.9
		l-5.3,12.2l-5.1-12.8l-8.9,3l6.6,16.8l-0.7,0.2l0,0L92.1,64L97,53l-8.9-3.8l-5.9,13.3L76,48.7L67,52.2l10.1,22l-0.4,1l1.1,0.5
		l0.5,1.2c0.1,0.2,0.1,0.4,0.2,0.6v0l92.9,201.5l3.2-1.3l1.8,4.5l4.8-1.8l1.6,3.6l113-38.9l-1.4-3l3.6-1.2L296.4,237.1z"/>
	<g>
		<path class="st3" d="M220.7,171.3l-12.2-6.7l-30.4,8.9c-0.2,1-0.2,2.2,0.3,3.3l13.3,28.9c1,2.2,3.3,3.4,5.3,2.8l32.2-10.1
			c1.4-0.5,2.3-1.8,2.5-3.3L220.7,171.3z"/>
		<g>
			<g>
				<path class="st1" d="M179.8,175.5c-1.1,0-2.1-0.7-2.5-1.7c-0.5-1.3,0.3-2.7,1.6-3.2l30.8-9.5l2.1,4.6l-31.2,9.7
					C180.4,175.5,180.1,175.5,179.8,175.5z"/>
				<path class="st2" d="M179.8,177.1C179.8,177.1,179.8,177.1,179.8,177.1L179.8,177.1c-1.9,0-3.4-1.2-4-2.8
					c-0.4-1-0.3-2.1,0.2-3.1c0.5-1,1.4-1.7,2.4-2.1l32.1-9.9l3.4,7.5l-32.9,10.2C180.7,177,180.3,177.1,179.8,177.1z M208.9,163
					l-29.5,9.1c-0.3,0.1-0.5,0.2-0.6,0.5c-0.1,0.1-0.1,0.4,0,0.7c0.1,0.4,0.6,0.7,1,0.7h0c0.1,0,0.2,0,0.3,0l29.5-9.2L208.9,163z"/>
			</g>
			<g>
				<path class="st1" d="M230,196.5c-1,0-1.9-0.6-2.3-1.5l-12.8-28.7l4.6-1.6l12.9,28.4c0.6,1.3,0,2.7-1.3,3.3
					C230.7,196.5,230.4,196.5,230,196.5z"/>
				<path class="st2" d="M230,198.1C230,198.1,230,198.1,230,198.1L230,198.1c-1.7,0-3.1-1-3.8-2.4l-13.5-30.3l7.5-2.6l13.5,29.7
					c0.5,1,0.5,2.1,0.1,3.1c-0.4,1-1.2,1.8-2.2,2.2C231.1,198,230.6,198.1,230,198.1z M217,167.2l12.1,27.2c0.2,0.3,0.5,0.6,0.9,0.6
					h0c0.1,0,0.3,0,0.4-0.1c0.2-0.1,0.4-0.3,0.5-0.5c0.1-0.2,0.1-0.5,0-0.7l-12.3-27.1L217,167.2z"/>
			</g>
		</g>
		<g>
			<polygon class="st1" points="217.7,166.5 212.1,168.4 209.7,163.1 215.3,161.1 			"/>
			<path class="st2" d="M211.2,170.3l-3.7-8.1l8.6-3.1l3.7,8.3L211.2,170.3z M211.8,164l1.1,2.5l2.7-0.9l-1.1-2.5L211.8,164z"/>
		</g>
	</g>
</g>
</svg>
