<svg id="圖層_1" data-name="圖層 1" xmlns="http://www.w3.org/2000/svg" viewBox="0 0 25 14.95"><defs><style>.cls-1{fill:#fff;}</style></defs><title>couponIcon</title><rect className="cls-1" x="12.68" y="3.61" width="1" height="1"/><path className="cls-1" d="M24,6V5H23V4H8.6v1.5H7.1V4H2V5H1V6H0V17H1v1H2v1H7.1v-1.5H8.6V19H23V18h1V17h1V6ZM8.6,15.61H7.1v-1.5H8.6Zm0-3.36H7.1v-1.5H8.6Zm0-3.36H7.1V7.39H8.6Zm3.08-2.25h3v3h-3Zm9,9h-3v-3h3Zm0-7.47h-1.5v1.5h-1.5v1.47h-1.5v1.5h-1.5v1.5h-1.5v1.5h-1.5v-1.5h1.5v-1.5h1.5v-1.5h1.5V9.61h1.5V8.14h1.5V6.64h1.5Z" transform="translate(0 -4.02)"/><rect className="cls-1" x="18.68" y="9.59" width="1" height="1"/></svg>