<?xml version="1.0" encoding="utf-8"?>
<!-- Generator: Adobe Illustrator 24.0.2, SVG Export Plug-In . SVG Version: 6.00 Build 0)  -->
<svg version="1.1" id="圖層_1" xmlns="http://www.w3.org/2000/svg" xmlns:xlink="http://www.w3.org/1999/xlink" x="0px" y="0px"
	 viewBox="0 0 300 300" style="enable-background:new 0 0 300 300;" xml:space="preserve">
<style type="text/css">
	.st0{fill:#FFE000;}
</style>
<polygon class="st0" points="240,126.4 240,102.1 220.7,102.1 220.7,78.5 201.6,78.5 201.6,54.1 182.4,54.1 182.4,30.6 163.3,30.6 
	163.3,6 49,6 49,55 67.4,55 67.4,78.5 85.9,78.5 85.9,102.9 105.7,102.9 105.7,126.4 124.9,126.4 124.9,174.4 105.7,174.4 
	105.7,198.1 85.9,198.1 85.9,222.3 67.4,222.3 67.4,246 49,246 49,295 163.3,295 163.3,270.3 182.4,270.3 182.4,246.1 201.6,246.1 
	201.6,222.3 220.7,222.3 220.7,198.9 240,198.9 240,174.4 259,174.4 259,126.4 "/>
</svg>
