<svg width="46" height="37" viewBox="0 0 46 37" fill="none" xmlns="http://www.w3.org/2000/svg">
<g clip-path="url(#clip0_38_3988)">
<path d="M27.6197 12.3427H24.5305V15.4178H27.6197V12.3427Z" fill="white"/>
<path d="M42.953 15.4178H39.8639V18.5212H42.953V15.4178Z" fill="white"/>
<path d="M39.8639 12.3427H36.8029V15.4178H39.8639V12.3427Z" fill="white"/>
<path d="M30.6807 15.4319H27.5916V18.5071H30.6807V15.4319Z" fill="white"/>
<path d="M39.8638 18.5212V15.4178H36.8028H33.7277V18.5212H30.6666H30.6526H27.5915V15.432H24.5305V12.3427H27.6056V9.23943H24.5305V6.16432V3.061H21.4694V6.16432V9.23943H18.3803V12.3427V15.432H15.3473V18.5212H12.2863V15.4178H9.19716V12.3427V9.23943H6.13611V12.3427V15.4178V18.5212V21.1449V21.5822V24.6855V25.8704V27.7606H9.19716V30.8498H12.2582H12.2863H15.3473H18.4084H21.4414H21.4835H24.5305H27.5915H30.6526H30.6666H33.7277H33.7417H36.8028H39.8638H42.953V27.7606V26.9565V25.8704V24.6855V21.5822V21.1449V18.5212H39.8638Z" fill="#F5EA2B"/>
<path d="M39.8639 9.25354H36.8029V12.3569H39.8639V9.25354Z" fill="#F5EA2B"/>
<path d="M39.8638 30.8357H36.8028H33.7418H33.7277H30.6667H30.6526H27.5916H24.5305H21.4835H21.4414H18.4084H15.3474H12.2863H12.2582H9.19718V27.7747H6.13613V24.6714V24.2905V21.5822V21.1308V18.5212V15.4178H3.047V18.5212V21.1308V21.5822V24.2905V24.6714V27.7747V28.085V30.8357V30.8498V33.9108H6.13613H9.19718H12.2582H12.2863H15.3474H18.4084H21.4414H21.4835H24.5305H27.5916H30.6526H30.6667H33.7277H33.7418H36.8028H39.8638H42.953V30.8357H39.8638Z" fill="#CEB51A"/>
<path d="M27.6056 15.4037H30.6666V12.3427V9.23941H27.6056V12.3427V15.4037Z" fill="#231815"/>
<path d="M24.5305 9.23943H27.6056V6.16432V3.061H24.5305V6.16432V9.23943Z" fill="#231815"/>
<path d="M24.5305 0H21.4695V3.0751H24.5305V0Z" fill="#231815"/>
<path d="M21.4695 6.16432V3.061H18.3804V6.16432V9.23943H21.4695V6.16432Z" fill="#231815"/>
<path d="M18.3804 12.3427V9.23941H15.3334V12.3427V15.4037H18.3804V12.3427Z" fill="#231815"/>
<path d="M42.953 15.4178V18.5212V20.0446V21.5822V24.8971V27.7606V29.6931V30.8639V33.9249H39.8779H39.8638H36.7887H35.2582H33.7277H31.467H27.7179H27.6898H23.9127H20.1776H20.1496H16.3724H15.3474H12.6093H12.2582H9.22526H9.19717H6.13612H3.07507V37H6.13612H9.19717H9.22526H12.2582H12.6093H15.3474H16.3724H20.1496H20.1776H23.9127H27.6898H27.7179H31.467H33.7277H35.2582H36.7887H39.8638H39.8779H42.953V33.939H46V30.8639V29.6931V27.7606V24.8971V21.5822V20.0446V18.5212V15.4178H42.953Z" fill="#231815"/>
<path d="M42.953 9.23941H39.8639V12.3427V15.4178H42.953V12.3427V9.23941Z" fill="#231815"/>
<path d="M39.8639 6.17844H36.8029V9.25354H39.8639V6.17844Z" fill="#231815"/>
<path d="M33.7277 12.3427V15.4178H36.8028V12.3427V9.23941H33.7277V12.3427Z" fill="#231815"/>
<path d="M33.7277 15.4178H30.6666V18.5212H33.7277V15.4178Z" fill="#231815"/>
<path d="M15.3474 15.4178H12.2864V18.5212H15.3474V15.4178Z" fill="#231815"/>
<path d="M9.19714 15.4178H12.2863V12.3427V9.23941H9.19714V12.3427V15.4178Z" fill="#231815"/>
<path d="M9.19716 6.17844H6.13611V9.25354H9.19716V6.17844Z" fill="#231815"/>
<path d="M6.13613 12.3427V9.23941H3.047V12.3427V15.4178H6.13613V12.3427Z" fill="#231815"/>
<path d="M0 18.5212V20.0446V21.5822V23.5429V26.9707V26.9848V30.4548V33.9108H3.04701V30.4548V26.9848V26.9707V23.5429V21.5822V20.0446V18.5212V15.4178H0V18.5212Z" fill="#231815"/>
</g>
<defs>
<clipPath id="clip0_38_3988">
<rect width="46" height="37" fill="white"/>
</clipPath>
</defs>
</svg>
