<svg width="27" height="42" viewBox="0 0 27 42" fill="none" xmlns="http://www.w3.org/2000/svg">
<path d="M5.25 36.7201L5.25 39.3501L7.88 39.3501L7.88 36.7201L5.25 36.7201Z" fill="white"/>
<path d="M7.87988 34.1L7.87988 36.73L10.4799 36.73L10.4799 34.1L7.87988 34.1Z" fill="white"/>
<path d="M10.48 31.4701L10.48 34.1001L13.11 34.1001L13.11 31.4701L10.48 31.4701Z" fill="white"/>
<path d="M7.87988 28.85L7.87988 31.48L10.4799 31.48L10.4799 28.85L7.87988 28.85Z" fill="white"/>
<path d="M13.1001 28.85L13.1001 31.48L15.7301 31.48L15.7301 28.85L13.1001 28.85Z" fill="white"/>
<path d="M10.48 26.2201L10.48 28.8501L13.11 28.8501L13.11 26.2201L10.48 26.2201Z" fill="white"/>
<path d="M15.73 26.2201L15.73 28.8501L18.36 28.8501L18.36 26.2201L15.73 26.2201Z" fill="white"/>
<path d="M5.25 23.6L5.25 26.23L7.88 26.23L7.88 23.6L5.25 23.6Z" fill="white"/>
<path d="M13.1001 23.6L13.1001 26.23L15.7301 26.23L15.7301 23.6L13.1001 23.6Z" fill="white"/>
<path d="M18.3501 23.6L18.3501 26.23L20.9801 26.23L20.9801 23.6L18.3501 23.6Z" fill="white"/>
<path d="M7.87988 20.9701L7.87988 23.6001L10.4799 23.6001L10.4799 20.9701L7.87988 20.9701Z" fill="white"/>
<path d="M20.98 20.9701L20.98 23.6001L23.61 23.6001L23.61 20.9701L20.98 20.9701Z" fill="white"/>
<path d="M2.62988 36.7201L2.62988 39.3501L5.25988 39.3501L5.25988 36.7201L2.62988 36.7201Z" fill="#C9E8EF"/>
<path d="M10.48 28.85L10.48 31.48L13.11 31.48L13.11 28.85L10.48 28.85Z" fill="#C9E8EF"/>
<path d="M13.1001 26.2201L13.1001 28.8501L15.7301 28.8501L15.7301 26.2201L13.1001 26.2201Z" fill="#C9E8EF"/>
<path d="M2.62988 23.6L2.62988 26.23L5.25988 26.23L5.25988 23.6L2.62988 23.6Z" fill="#C9E8EF"/>
<path d="M7.88 23.6L7.88 26.23L5.25 26.23L5.25 28.85L5.25 31.48L5.25 34.1L5.25 36.73L7.88 36.73L7.88 34.1L10.47 34.1L10.47 31.48L7.88 31.48L7.88 28.85L10.47 28.85L10.47 26.23L13.1 26.23L13.1 23.6L15.73 23.6L15.73 26.23L18.35 26.23L18.35 23.6L20.98 23.6L20.98 20.98L18.35 20.98L15.73 20.98L13.1 20.98L10.47 20.98L10.47 23.6L7.88 23.6Z" fill="#C9E8EF"/>
<path d="M7.87988 18.35L7.87988 20.98L10.4799 20.98L10.4799 18.35L7.87988 18.35Z" fill="#C9E8EF"/>
<path d="M5.25 15.7201L5.25 18.3501L7.88 18.3501L7.88 15.7201L5.25 15.7201Z" fill="#C9E8EF"/>
<path d="M2.62988 31.48L2.62988 34.1L2.62988 36.73L5.24988 36.73L5.24988 34.1L5.24988 31.48L5.24988 28.85L5.24988 26.23L2.62988 26.23L2.62988 28.85L2.62988 31.48Z" fill="#73C8D7"/>
<path d="M5.24988 15.7301L2.62988 15.7301L2.62988 18.3501L2.62988 20.9801L2.62988 23.6001L5.24988 23.6001L7.87988 23.6001L7.87988 20.9801L7.87988 18.3501L5.24988 18.3501L5.24988 15.7301Z" fill="#73C8D7"/>
<path d="M5.25 7.87998L5.25 10.5L5.25 13.1L5.25 15.73L7.88 15.73L7.88 18.35L10.47 18.35L10.47 20.98L13.1 20.98L15.73 20.98L18.35 20.98L20.98 20.98L20.98 18.35L18.35 18.35L18.35 15.73L15.73 15.73L15.73 13.1L13.1 13.1L13.1 10.5L10.47 10.5L10.47 7.87998L7.88 7.87998L7.88 5.24998L5.25 5.24998L5.25 7.87998Z" fill="#73C8D7"/>
<path d="M20.98 18.35L20.98 20.98L23.61 20.98L23.61 18.35L20.98 18.35Z" fill="#31A8B5"/>
<path d="M18.3501 15.7201L18.3501 18.3501L20.9801 18.3501L20.9801 15.7201L18.3501 15.7201Z" fill="#31A8B5"/>
<path d="M15.73 13.09L15.73 15.72L18.36 15.72L18.36 13.09L15.73 13.09Z" fill="#31A8B5"/>
<path d="M13.1001 10.5001L13.1001 13.1001L15.7301 13.1001L15.7301 10.5001L13.1001 10.5001Z" fill="#31A8B5"/>
<path d="M10.48 7.87L10.48 10.5L13.11 10.5L13.11 7.87L10.48 7.87Z" fill="#31A8B5"/>
<path d="M7.87988 5.24988L7.87988 7.87988L10.4799 7.87988L10.4799 5.24988L7.87988 5.24988Z" fill="#31A8B5"/>
<path d="M2.62988 5.24998L2.62988 7.87998L2.62988 10.5L2.62988 13.1L2.62988 15.73L5.24988 15.73L5.24988 13.1L5.24988 10.5L5.24988 7.87998L5.24988 5.24998L7.87988 5.24998L7.87988 2.61998L5.24988 2.61998L2.62988 2.61998L2.62988 5.24998Z" fill="#31A8B5"/>
<path d="M2.62988 39.35L2.62988 41.98L5.24988 41.98L7.87988 41.98L7.87988 39.35L5.24988 39.35L2.62988 39.35Z" fill="#040000"/>
<path d="M7.87988 36.7201L7.87988 39.3501L10.4799 39.3501L10.4799 36.7201L7.87988 36.7201Z" fill="#040000"/>
<path d="M2.63 34.1001L2.63 31.4801L2.63 28.8501L2.63 26.2301L2.63 23.6001L2.63 20.9801L2.63 18.3501L2.63 15.7301L2.63 13.1001L2.63 10.5001L2.63 7.8801L2.63 5.2501L2.63 2.6201L-1.60552e-06 2.6201L-1.49056e-06 5.2501L-1.3756e-06 7.8801L-1.26107e-06 10.5001L-1.14742e-06 13.1001L-1.03246e-06 15.7301L-9.17939e-07 18.3501L-8.02978e-07 20.9801L-6.88454e-07 23.6001L-5.73493e-07 26.2301L-4.5897e-07 28.8501L-3.44009e-07 31.4801L-2.29485e-07 34.1001L-1.14524e-07 36.7301L0 39.3501L2.63 39.3501L2.63 36.7301L2.63 34.1001Z" fill="#040000"/>
<path d="M10.48 34.1L10.48 36.73L13.11 36.73L13.11 34.1L10.48 34.1Z" fill="#040000"/>
<path d="M13.1001 31.4701L13.1001 34.1001L15.7301 34.1001L15.7301 31.4701L13.1001 31.4701Z" fill="#040000"/>
<path d="M15.73 28.85L15.73 31.48L18.36 31.48L18.36 28.85L15.73 28.85Z" fill="#040000"/>
<path d="M18.3501 26.2201L18.3501 28.8501L20.9801 28.8501L20.9801 26.2201L18.3501 26.2201Z" fill="#040000"/>
<path d="M20.98 23.6L20.98 26.23L23.61 26.23L23.61 23.6L20.98 23.6Z" fill="#040000"/>
<path d="M23.6001 23.6001L26.2301 23.6001L26.2301 20.9801L26.2301 18.3501L23.6001 18.3501L23.6001 20.9801L23.6001 23.6001Z" fill="#040000"/>
<path d="M20.98 15.7201L20.98 18.3501L23.61 18.3501L23.61 15.7201L20.98 15.7201Z" fill="#040000"/>
<path d="M18.3501 13.09L18.3501 15.72L20.9801 15.72L20.9801 13.09L18.3501 13.09Z" fill="#040000"/>
<path d="M15.73 10.5001L15.73 13.1001L18.36 13.1001L18.36 10.5001L15.73 10.5001Z" fill="#040000"/>
<path d="M13.1001 7.87L13.1001 10.5L15.7301 10.5L15.7301 7.87L13.1001 7.87Z" fill="#040000"/>
<path d="M10.48 5.24988L10.48 7.87988L13.11 7.87988L13.11 5.24988L10.48 5.24988Z" fill="#040000"/>
<path d="M7.87988 2.62L7.87988 5.25L10.4799 5.25L10.4799 2.62L7.87988 2.62Z" fill="#040000"/>
<path d="M2.62988 2.61987L5.24988 2.61987L7.87988 2.61987L7.87988 -0.000126114L5.24988 -0.000126L2.62988 -0.000125885L2.62988 2.61987Z" fill="#040000"/>
</svg>
